<?xml version="1.0" encoding="UTF-8" standalone="no"?>
<svg width="34px" height="34px" viewBox="0 0 34 34" version="1.1" xmlns="http://www.w3.org/2000/svg" xmlns:xlink="http://www.w3.org/1999/xlink">
    <!-- Generator: Sketch 3.8.2 (29753) - http://www.bohemiancoding.com/sketch -->
    <title>Slice 1</title>
    <desc>Created with Sketch.</desc>
    <defs></defs>
    <g id="Page-1" stroke="none" stroke-width="1" fill="none" fill-rule="evenodd">
        <path d="M4.6192802,4.70775829 C5.2628487,4.44605826 5.6233538,3.92933423 5.4731433,3.32715713 C5.2561726,2.4626124 4.0878689,1.76096259 2.8628191,1.76096259 C1.6384368,1.76096259 0.819289,2.4626124 1.0342569,3.32715713 C1.178459,3.90263014 1.7499264,4.40132892 2.4756099,4.67237537 L8.2002979,31.176179 C8.3057791,31.6655313 8.7390528,32 9.2197263,32 C9.292495,32 9.3665988,31.9919888 9.4413702,31.9759663 C10.0041588,31.8544627 10.3626611,31.2990178 10.2411576,30.7355616 L4.6192802,4.70775829 L4.6192802,4.70775829 Z M28.2644116,21.8504452 C28.2844397,21.8504452 28.3038002,21.8477748 28.3238282,21.8471072 C27.9860215,20.2862534 27.7904141,19.380985 27.4292414,17.7086417 C29.032154,17.6498927 29.8800087,17.4255784 31.0816925,16.2078722 L30.1089962,11.7028932 C28.9073125,12.9199318 28.0581226,13.1435785 26.4558775,13.2023275 C26.109392,11.6000824 25.9171226,10.7061632 25.60602,9.26213986 C25.5132233,9.26614547 25.4224295,9.27348909 25.3289652,9.27348909 C24.1499798,9.27348909 22.9676565,8.96171891 21.8667806,8.62457984 C21.5409908,8.52510713 21.215201,8.41628799 20.8900788,8.30079282 C21.2005137,9.73546975 21.3927831,10.6273862 21.7379334,12.2236228 C19.7805241,11.5066181 18.7671041,10.9838857 16.8110299,10.266881 C16.4665472,8.6726472 16.2742778,7.78139838 15.965178,6.35072707 C15.4504568,6.15712246 14.935068,5.97286428 14.4230172,5.81664538 C13.4015859,5.5048752 12.3133945,5.21647109 11.2706,5.21647109 C11.2519071,5.21647109 11.2332143,5.2191415 11.2145214,5.2191415 C11.5423141,6.73726869 11.7379215,7.63986674 12.0937534,9.28684113 C10.4861675,9.34559012 9.6376453,9.57190723 8.4292854,10.7989599 L9.4026493,15.3046065 C10.6110091,14.0782215 11.4588638,13.8519043 13.0664497,13.7931554 C13.418276,15.4207693 13.6132158,16.3200293 13.9336648,17.8047764 C14.0244587,17.8007708 14.1139174,17.7927596 14.2060465,17.7927596 C15.3816938,17.7927596 16.5580087,18.1025269 17.6535437,18.4376632 C17.985342,18.5384711 18.315805,18.6499607 18.6456005,18.766791 C18.3271543,17.292058 18.1348849,16.3941332 17.7850614,14.7731952 C19.7418031,15.4901999 20.7545555,16.0122648 22.7119649,16.7292694 C23.0617884,18.3482045 23.255393,19.2461294 23.5738392,20.7168568 C24.0818844,20.9084586 24.5919324,21.090714 25.09931,21.2455977 C26.2849714,21.6087732 27.2770281,21.8504452 28.2644116,21.8504452 L28.2644116,21.8504452 L28.2644116,21.8504452 Z M32.9883641,20.2328453 C33.0230794,20.3917346 32.9790177,20.5572999 32.8708662,20.6781359 C31.5563576,22.1488633 30.0495797,22.8638652 28.2644116,22.8638652 C27.0860939,22.8638652 25.9044382,22.552095 24.8028947,22.2156235 C23.5297775,21.8264115 22.2626687,21.3023438 21.0369512,20.7956338 C19.8319294,20.2976027 18.5855163,19.7822138 17.357796,19.4070215 C16.3370324,19.0952513 15.248841,18.8068472 14.2060465,18.8068472 C12.7019389,18.8068472 11.4762215,19.3970074 10.3479739,20.6654514 C10.2211295,20.8083183 10.0255221,20.8670673 9.8399287,20.8189999 C9.6556705,20.770265 9.5141389,20.6220573 9.4734151,20.4357963 L6.5379687,6.84475263 C6.503921,6.68653093 6.5473151,6.52163321 6.654799,6.40079723 C7.9713104,4.92139096 9.4807588,4.20238349 11.2706,4.20238349 C12.4469149,4.20238349 13.6225622,4.51215087 14.7187649,4.84661952 C15.9932173,5.23649915 17.2623289,5.76123441 18.4907168,6.26861201 C19.6937358,6.76597558 20.9374785,7.2806968 22.1625284,7.65522159 C23.3495249,8.01772953 24.340914,8.26006909 25.3289652,8.26006909 C26.8290671,8.26006909 28.0527818,7.67257924 29.1783589,6.41147886 C29.3058709,6.26927961 29.5021459,6.20986302 29.6857365,6.25926558 C29.8699947,6.30800053 30.0115263,6.4562082 30.0522501,6.64246919 L32.9883641,20.2328453 L32.9883641,20.2328453 Z M27.4292414,17.7086417 C27.0400294,15.906116 26.8450895,15.0041856 26.4558775,13.2023275 C24.6667039,13.2670849 23.6946752,12.9406275 21.7379334,12.2236228 C22.1271455,14.0261485 22.3220853,14.9267437 22.7119649,16.7292694 C24.6687067,17.4469417 25.6400677,17.7733991 27.4292414,17.7086417 L27.4292414,17.7086417 L27.4292414,17.7086417 Z M16.8110299,10.266881 C17.2002419,12.0694067 17.3958493,12.9706696 17.7850614,14.7731952 C15.8283196,14.055523 14.8542881,13.7283979 13.0664497,13.7931554 C12.6772376,11.9912973 12.4829654,11.0900344 12.0937534,9.28684113 C13.8822594,9.22208373 14.8542881,9.54920876 16.8110299,10.266881 L16.8110299,10.266881 L16.8110299,10.266881 Z" id="Auto-icon" fill="#000000"></path>
    </g>
</svg>