<?xml version="1.0" encoding="UTF-8" standalone="no"?>
<svg width="34px" height="34px" viewBox="0 0 34 34" version="1.1" xmlns="http://www.w3.org/2000/svg" xmlns:xlink="http://www.w3.org/1999/xlink">
    <!-- Generator: Sketch 3.8.2 (29753) - http://www.bohemiancoding.com/sketch -->
    <title>Slice 1</title>
    <desc>Created with Sketch.</desc>
    <defs></defs>
    <g id="Page-1" stroke="none" stroke-width="1" fill="none" fill-rule="evenodd">
        <path d="M17.571904,28.776192 L17.571904,26.021632 C22.091584,25.706112 25.706304,22.092032 26.021824,17.572352 L28.775104,17.572352 C28.450624,23.610112 23.609024,28.452352 17.571904,28.776192 L17.571904,28.776192 L17.571904,28.776192 Z M5.093184,17.572352 L7.846464,17.572352 C8.161984,22.092032 11.776704,25.706112 16.295744,26.021632 L16.295744,28.776192 C10.259264,28.452352 5.417664,23.610112 5.093184,17.572352 L5.093184,17.572352 L5.093184,17.572352 Z M16.295744,5.092992 L16.295744,7.846912 C11.776064,8.161792 8.161344,11.776512 7.846464,16.296192 L5.093184,16.296192 C5.415744,10.259072 10.257984,5.416192 16.295744,5.092992 L16.295744,5.092992 L16.295744,5.092992 Z M19.470144,16.296192 C19.235264,15.362432 18.505024,14.631552 17.571904,14.396672 L17.571904,12.256512 C19.667264,12.541312 21.327424,14.201472 21.612224,16.296192 L19.470144,16.296192 L19.470144,16.296192 Z M17.571904,19.469312 C18.504384,19.235072 19.234624,18.504832 19.469504,17.572352 L21.612224,17.572352 C21.326784,19.668352 19.666624,21.327232 17.571904,21.612032 L17.571904,19.469312 L17.571904,19.469312 Z M14.396224,17.572352 C14.631744,18.505472 15.361984,19.235072 16.295744,19.469952 L16.295744,21.612032 C14.200384,21.327232 12.541504,19.668352 12.255424,17.572352 L14.396224,17.572352 L14.396224,17.572352 Z M16.295744,14.396672 C15.361344,14.630912 14.630464,15.361792 14.395584,16.296192 L12.255424,16.296192 C12.540864,14.201472 14.199744,12.541312 16.295744,12.256512 L16.295744,14.396672 L16.295744,14.396672 Z M28.775104,16.296192 L26.021824,16.296192 C25.706944,11.776512 22.091584,8.161792 17.571904,7.846912 L17.571904,5.092992 C23.610304,5.416192 28.452544,10.259072 28.775104,16.296192 L28.775104,16.296192 L28.775104,16.296192 Z M32.867264,16.296192 L30.452544,16.296192 C30.126784,9.334272 24.534464,3.742592 17.571904,3.415552 L17.571904,1.000192 L16.295744,1.000192 L16.295744,3.415552 C9.333184,3.742592 3.741504,9.334272 3.415744,16.296192 L0.999744,16.296192 L0.999744,17.572352 L3.415744,17.572352 C3.743424,24.534912 9.334464,30.126592 16.295744,30.453632 L16.295744,32.868352 L17.571904,32.868352 L17.571904,30.453632 C24.533184,30.126592 30.124864,24.534912 30.452544,17.572352 L32.867264,17.572352 L32.867264,16.296192 L32.867264,16.296192 Z" id="Autres-icon" fill="#000000"></path>
    </g>
</svg>