<?xml version="1.0" encoding="UTF-8" standalone="no"?>
<svg width="34px" height="34px" viewBox="0 0 34 34" version="1.1" xmlns="http://www.w3.org/2000/svg" xmlns:xlink="http://www.w3.org/1999/xlink">
    <!-- Generator: Sketch 3.8.2 (29753) - http://www.bohemiancoding.com/sketch -->
    <title>Slice 1</title>
    <desc>Created with Sketch.</desc>
    <defs></defs>
    <g id="Page-1" stroke="none" stroke-width="1" fill="none" fill-rule="evenodd">
        <path d="M20.9545043,29.3926957 C19.8685913,29.7544348 18.7513739,29.9693913 17.6216348,30.0452174 C15.7385043,28.2838261 14.1976348,25.6396522 13.2689391,22.5349565 C12.4758957,19.8817391 12.1336348,17.0003478 12.2762435,14.192 C13.6418087,14.1085217 14.8480696,14.0876522 16.0592,14.1113043 C16.0647652,14.1996522 16.0710261,14.2886957 16.0821565,14.3784348 C16.5920696,18.5029565 20.8752,22.9182609 26.7910261,25.4782609 C25.2765913,27.2250435 23.3023304,28.610087 20.9545043,29.3926957 M4.5085913,22.0758261 C7.24528696,19.9436522 9.03102609,17.2848696 9.41015652,14.7262609 C9.42406957,14.6358261 9.43241739,14.546087 9.44006957,14.4563478 C9.91172174,14.3958261 10.4042435,14.3415652 10.9085913,14.2949565 C10.7729391,17.213913 11.1318957,20.1947826 11.949287,22.9293913 C12.7917217,25.7467826 14.0758957,28.1843478 15.677287,30.0396522 C10.7645913,29.6535652 6.47728696,26.5885217 4.5085913,22.0758261 M3.41224348,15.778087 C4.7805913,15.3307826 6.2658087,14.9641739 7.84911304,14.6935652 C7.48946087,16.685913 6.08424348,18.7902609 3.96111304,20.5572174 C3.48946087,18.9871304 3.29885217,17.3732174 3.41224348,15.778087 M5.44146087,9.61043478 C5.96667826,9.91165217 6.41954783,10.2629565 6.78406957,10.6657391 C7.41293913,11.36 7.7872,12.1836522 7.8992,13.1165217 C6.40911304,13.3565217 4.99067826,13.6806957 3.66128696,14.0737391 C3.89363478,12.9384348 4.26233043,11.8246957 4.7952,10.7603478 C4.99276522,10.3638261 5.20911304,9.98052174 5.44146087,9.61043478 M12.5127652,4.06608696 C13.0776348,3.87826087 13.6515478,3.73843478 14.2296348,3.62643478 C12.5475478,5.96591304 11.4164174,9.15547826 11.0296348,12.7346087 C10.5058087,12.7798261 9.9805913,12.8347826 9.43311304,12.9015652 C9.27937391,11.6737391 8.7792,10.5843478 7.94302609,9.66191304 C7.5005913,9.17356522 6.95589565,8.74295652 6.3312,8.37217391 C7.92006957,6.38608696 10.0425043,4.88973913 12.5127652,4.06608696 M25.4115478,6.58434783 C21.9548522,6.66991304 19.161113,7.71130435 17.5270261,9.55965217 C16.7625043,10.4229565 16.2873739,11.4351304 16.1113739,12.5683478 C14.9405913,12.5446957 13.7746783,12.562087 12.4077217,12.64 C12.8529391,8.81808696 14.2240696,5.49217391 16.189287,3.39965217 C16.3715478,3.392 16.553113,3.3773913 16.7353739,3.3773913 C20.0007652,3.3773913 23.0505043,4.56278261 25.4115478,6.58434783 M29.3955478,12.5092174 C29.6529391,13.2813913 29.8240696,14.0612174 29.9353739,14.8403478 C26.1767652,13.6076522 21.9534609,12.8403478 17.6619826,12.6246957 C17.8101565,11.8664348 18.153113,11.1791304 18.6832,10.5815652 C20.0710261,9.01147826 22.6880696,8.1106087 25.8623304,8.1106087 C26.1927652,8.1106087 26.5621565,8.12730435 26.9565913,8.15234783 C28.013287,9.41356522 28.8529391,10.8793043 29.3955478,12.5092174 M27.7552,24.2226087 C22.1343304,21.9186087 18.0745043,17.9213913 17.613287,14.1878261 C21.9833739,14.3972174 26.2783304,15.2173913 30.077287,16.5377391 C30.1148522,19.3043478 29.2752,21.9812174 27.7552,24.2226087 M31.6508522,11.7572174 C29.5068522,5.32382609 23.513113,1.00034783 16.7353739,1.00034783 C15.049113,1.00034783 13.3746783,1.27304348 11.7614609,1.81078261 C7.77606957,3.13947826 4.54685217,5.94017391 2.66789565,9.6973913 C0.789634783,13.4532174 0.486330435,17.7175652 1.81572174,21.7022609 C3.95972174,28.1356522 9.95346087,32.4584348 16.7318957,32.4584348 C18.4181565,32.4584348 20.0918957,32.1864348 21.7065043,31.648 C29.9318957,28.9050435 34.3938087,19.9826087 31.6508522,11.7572174" id="Shape" fill="#000000"></path>
    </g>
</svg>