<?xml version="1.0" encoding="UTF-8" standalone="no"?>
<svg width="40px" height="40px" viewBox="0 0 40 40" version="1.1" xmlns="http://www.w3.org/2000/svg" xmlns:xlink="http://www.w3.org/1999/xlink">
    <!-- Generator: Sketch 3.8.2 (29753) - http://www.bohemiancoding.com/sketch -->
    <title>Slice 1</title>
    <desc>Created with Sketch.</desc>
    <defs></defs>
    <g id="Page-1" stroke="none" stroke-width="1" fill="none" fill-rule="evenodd">
        <path d="M25.1375396,14.8380709 L14.7983572,14.8380709 L19.8325529,23.3128695 L25.1375396,14.8380709 L25.1375396,14.8380709 Z M9.78752621,24.0886976 L18.0532406,24.0886976 L13.2682685,16.0338646 L9.78752621,24.0886976 L9.78752621,24.0886976 Z M26.7269388,15.929023 L20.696448,25.5630706 C20.5203141,25.8446452 20.2117802,26.0153872 19.8804805,26.0153872 L8.32213972,26.0153872 C7.9980293,26.0153872 7.69548629,25.8524335 7.51695597,25.5810434 C7.33902474,25.3102524 7.30906998,24.9675701 7.43787542,24.6698198 L12.0539028,13.9891532 L9.77554431,10.1543458 C9.76056694,10.1291838 9.75158051,10.1016254 9.73899951,10.0752653 L7.25215595,10.0752653 C6.72015955,10.0752653 6.28881112,9.64391682 6.28881112,9.11132132 C6.28881112,8.5805231 6.72015955,8.14857557 7.25215595,8.14857557 L12.666178,8.14857557 C13.1975752,8.14857557 13.6289237,8.5805231 13.6289237,9.11132132 C13.6289237,9.64391682 13.1975752,10.0752653 12.666178,10.0752653 L11.9694304,10.0752653 L13.6540857,12.9119803 L25.4574564,12.9119803 L23.9531287,9.33598197 C23.8279178,9.03883082 23.8596699,8.69914392 24.0387993,8.43015025 C24.2173297,8.16115657 24.5186745,8 24.8409876,8 L31.1063236,8 C33.0431979,8 34.619417,9.57561999 34.619417,11.5118952 C34.619417,13.4493686 33.0431979,15.0249886 31.1063236,15.0249886 C30.5743272,15.0249886 30.1429787,14.5936401 30.1429787,14.0622428 C30.1429787,13.5296473 30.5743272,13.098898 31.1063236,13.098898 C31.9816014,13.098898 32.6933264,12.386574 32.6933264,11.5118952 C32.6933264,10.6372164 31.9816014,9.92609059 31.1063236,9.92609059 L26.2913967,9.92609059 L32.5004178,24.6847971 C32.7071056,25.1742579 32.4770531,25.7392045 31.9863942,25.9452932 C31.864778,25.9968154 31.7383689,26.0207792 31.6137571,26.0207792 C31.2375254,26.0213782 30.8798656,25.7997131 30.7252992,25.4312696 L26.7269388,15.929023 L26.7269388,15.929023 Z M6.60093963,26.1825348 C6.22051428,25.6026108 6.1570102,24.8699176 6.43259393,24.2342777 L9.26751171,17.6921597 C8.9775497,17.6568131 8.68399313,17.6340475 8.3850447,17.6340475 C4.30640558,17.6340475 1,20.9386558 1,25.017295 C1,29.095934 4.30640558,32.4017406 8.3850447,32.4017406 C11.7351842,32.4017406 14.5587192,30.1695124 15.4615555,27.1111321 L8.32213972,27.1111321 C7.62838765,27.1111321 6.98136499,26.7618597 6.60093963,26.1825348 L6.60093963,26.1825348 L6.60093963,26.1825348 Z M39,24.9849438 C39,29.064182 35.6935944,32.3705876 31.6161535,32.3705876 C27.5381135,32.3705876 24.2317079,29.064182 24.2317079,24.9849438 C24.2317079,22.6802252 25.2885116,20.6229328 26.9438112,19.2689779 L29.7152249,25.8566271 C30.0465244,26.643838 30.8103707,27.1171231 31.6143562,27.1171231 C31.8797553,27.1171231 32.1505463,27.0650018 32.4117517,26.9559665 C33.459569,26.5144334 33.951426,25.3072569 33.5110911,24.2594397 L30.7342856,17.6598086 C31.0236485,17.6250611 31.317205,17.6016964 31.6161535,17.6016964 C35.6935944,17.6016964 39,20.9057056 39,24.9849438 L39,24.9849438 L39,24.9849438 Z" id="Fill-1" fill="#000000"></path>
    </g>
</svg>